<svg width="57" height="55" viewBox="0 0 57 55" fill="none" xmlns="http://www.w3.org/2000/svg">
  <path d="M56.1738 55L42.5533 55L42.5533 55L17.6625 55C14.8873 55 12.2606 54.3347 9.93515 53.1565C8.00669 52.1794 6.28542 50.8495 4.8585 49.2535C3.48226 47.7143 2.37983 45.9275 1.62943 43.9712C0.906911 42.0876 0.510743 40.0468 0.510744 37.9182C0.510744 36.7136 0.636816 35.5264 0.881571 34.3723C1.23342 32.7132 1.83055 31.1224 2.65102 29.6464C3.42602 28.2522 4.40029 26.9603 5.55535 25.8099C7.04108 24.3048 8.76095 23.1236 10.6357 22.2859C12.394 21.5003 14.2885 21.0169 16.2539 20.852L-0.0947227 11.102L6.51374 0.0494379L41.273 20.7361L41.4227 20.7355L41.4731 33.5976L17.7129 33.5976C16.5527 33.5976 15.4933 34.0494 14.6862 34.8537C13.879 35.6574 13.425 36.7126 13.425 37.8677C13.425 39.0297 13.9095 40.0901 14.6862 40.8574C15.4544 41.6163 16.5085 42.0885 17.6625 42.0885L42.5414 42.0885L42.5029 0.488772L56.1738 0.488773L56.1738 55Z" fill="#1D1D1D"/>
</svg>
